<?xml version="1.0" encoding="UTF-8"?>
<svg width="512" height="512" viewBox="0 0 512 512" xmlns="http://www.w3.org/2000/svg" role="img" aria-labelledby="title desc">
  <title id="title">Professor Daniel Gehlen</title>
  <desc id="desc">Placeholder portrait for Professor Daniel Gehlen</desc>
  <defs>
    <linearGradient id="g" x1="0" x2="1" y1="0" y2="1">
      <stop offset="0%" stop-color="#FFB366"/>
      <stop offset="100%" stop-color="#FF6B6B"/>
    </linearGradient>
  </defs>
  <rect width="100%" height="100%" fill="url(#g)"/>

  <!-- Head -->
  <g transform="translate(156,110)">
    <ellipse cx="100" cy="90" rx="80" ry="90" fill="#FFD9B3"/>
    <!-- Hair -->
    <path d="M30 70 C30 20, 170 20, 170 70 L170 70 C170 40, 140 10, 100 10 C60 10, 30 40, 30 70 Z" fill="#3B2E2E"/>
    <!-- Eyes -->
    <circle cx="70" cy="95" r="6" fill="#3B2E2E"/>
    <circle cx="130" cy="95" r="6" fill="#3B2E2E"/>
    <!-- Smile -->
    <path d="M75 130 Q100 150 125 130" stroke="#3B2E2E" stroke-width="4" fill="none" stroke-linecap="round"/>
  </g>

  <!-- Shirt -->
  <g transform="translate(96,250)">
    <rect x="0" y="0" width="320" height="200" rx="24" fill="#222"/>
    <path d="M0 0 L320 0 L260 200 L60 200 Z" fill="#1F1F1F" opacity="0.2"/>
    <text x="160" y="120" font-family="Arial, Helvetica, sans-serif" font-size="28" fill="#FFF" text-anchor="middle">Professor</text>
  </g>
</svg>
